<?xml version="1.0" standalone="no"?>
<!DOCTYPE svg PUBLIC "-//W3C//DTD SVG 20010904//EN"
 "http://www.w3.org/TR/2001/REC-SVG-20010904/DTD/svg10.dtd">
<svg version="1.0" xmlns="http://www.w3.org/2000/svg"
 width="1061.000000pt" height="1061.000000pt" viewBox="0 0 1061.000000 1061.000000"
 preserveAspectRatio="xMidYMid meet">

<g transform="translate(0.000000,1061.000000) scale(0.100000,-0.100000)"
fill="#000000" stroke="none">
<path d="M3775 8890 l-1530 -1530 1025 -1025 1025 -1025 -510 -510 c-280 -281
-514 -510 -520 -510 -6 0 -240 230 -520 511 l-510 511 -1010 -6 c-556 -3
-1010 -6 -1010 -6 -1 0 3043 -3043 3051 -3050 3 -2 465 456 1027 1018 l1022
1022 515 -515 515 -515 -517 -518 -518 -517 6 -1005 c4 -553 8 -1006 9 -1008
1 -1 689 685 1529 1525 l1527 1527 -1023 1023 -1023 1023 515 515 515 515 516
-516 516 -515 1007 2 c554 1 1009 5 1011 9 2 3 -683 693 -1523 1533 l-1527
1527 -1020 -1020 c-561 -561 -1024 -1020 -1030 -1020 -6 0 -240 230 -520 510
l-510 510 513 513 512 512 -2 1018 -3 1017 -1530 -1530z"/>
</g>
</svg>
